<svg xmlns="http://www.w3.org/2000/svg" viewBox="0 0 48 48"><path d="M20.54,12.882a.51.51,0,1,1,.467.55A.51.51,0,0,1,20.54,12.882Zm3.467.55a.51.51,0,1,0-.467-.55A.511.511,0,0,0,24.007,13.432Zm3,0a.51.51,0,1,0-.467-.55A.511.511,0,0,0,27.007,13.432Zm-9.019,9.257V33.655a.5.5,0,0,1-.5.5H6.522a.5.5,0,0,1-.5-.5V22.689a.5.5,0,0,1,.5-.5H17.488A.5.5,0,0,1,17.988,22.689Zm-10.966.5v6.084L9.7,26.805a.5.5,0,0,1,.692.014l2.865,2.864L14.6,28.148a.5.5,0,0,1,.37-.17.5.5,0,0,1,.373.159L16.988,29.9V23.189Zm9.966,9.966V31.369l-2-2.145-1.334,1.52a.5.5,0,0,1-.359.169.477.477,0,0,1-.37-.146l-2.9-2.9-3,2.768v2.522Zm-4.828-7.5a1.535,1.535,0,1,1,1.534,1.534A1.536,1.536,0,0,1,12.16,25.655Zm1,0a.535.535,0,1,0,.534-.534A.534.534,0,0,0,13.16,25.655Zm8.382-2.966a.5.5,0,0,0,.5.5h6.076a.5.5,0,1,0,0-1H22.042A.5.5,0,0,0,21.542,22.689Zm6.576,1.977h-8.14a.5.5,0,0,0,0,1h8.14a.5.5,0,0,0,0-1Zm0,2.476h-8.14a.5.5,0,0,0,0,1h8.14a.5.5,0,0,0,0-1Zm0,2.476h-8.14a.5.5,0,0,0,0,1h8.14a.5.5,0,0,0,0-1Zm5.35,3.129a.5.5,0,0,1-.5.5H31.1v2.029a2.5,2.5,0,0,1-2.5,2.5H6.045a2.5,2.5,0,0,1-2.5-2.5V12.724a2.5,2.5,0,0,1,2.5-2.5H28.6a2.5,2.5,0,0,1,2.5,2.5V32.247h1.871A.5.5,0,0,1,33.468,32.747ZM4.545,12.724v1.914H30.1V12.724a1.5,1.5,0,0,0-1.5-1.5H6.045A1.5,1.5,0,0,0,4.545,12.724ZM30.1,33.247H19.964a.5.5,0,0,1,0-1H30.1V15.638H4.545V35.276a1.5,1.5,0,0,0,1.5,1.5H28.6a1.5,1.5,0,0,0,1.5-1.5ZM6.522,19.124H24.049a.5.5,0,0,0,0-1H6.522a.5.5,0,0,0,0,1ZM43,22.058c.01.745-.584,1.477-1.811,2.229a1.209,1.209,0,0,1,.2.866c-.113.638-.747,1.108-1.94,1.437-1.553.429-3.127,2.86-3.6,3.761a.5.5,0,0,1-.157.165c-.346,1.307-.514,2.187-.52,2.221a.5.5,0,0,1-.49.409.47.47,0,0,1-.092-.008.5.5,0,0,1-.4-.582c.109-.583,2.715-14.292,9.693-15.366a.5.5,0,0,1,.428.14.5.5,0,0,1,.143.426,6.712,6.712,0,0,1-1.785,3.438A1.354,1.354,0,0,1,43,22.058Zm-1,.017a.376.376,0,0,0-.1-.234,5.9,5.9,0,0,1-.766.471.5.5,0,1,1-.453-.892,5.36,5.36,0,0,0,2.574-3.054c-3.23,1.068-5.384,5.478-6.651,9.135a5.75,5.75,0,0,1,2.578-1.875c.918-.253,1.2-.532,1.22-.645s-.161-.314-.293-.411a.5.5,0,0,1,.054-.846C41.872,22.8,42.005,22.229,42.005,22.075Z"/></svg>